<?xml version="1.0" encoding="utf-8"?>
<!-- Svg Vector Icons : http://www.onlinewebfonts.com/icon -->
<!DOCTYPE svg PUBLIC "-//W3C//DTD SVG 1.1//EN" "http://www.w3.org/Graphics/SVG/1.1/DTD/svg11.dtd">
<svg version="1.1" xmlns="http://www.w3.org/2000/svg" xmlns:xlink="http://www.w3.org/1999/xlink" x="0px" y="0px" viewBox="0 0 256 256" enable-background="new 0 0 256 256" xml:space="preserve">
<metadata> Svg Vector Icons : http://www.onlinewebfonts.com/icon </metadata>
<g><g><path fill="#000000" d="M10,79.4c0-0.3,0-0.7,0-1c0.1-0.1,0.2-0.3,0.2-0.5c1.4-7.9,5.5-11.6,13.6-12.1c1.1-0.1,2.2,0,3.4,0c62.8,0,125.7,0,188.5,0c2.2,0,4.3,0.1,6.4,0.5c6.3,1.3,11.3,6.9,11.4,13.3c0.2,11.5,0.1,22.9,0,34.4c0,3.2-0.7,3.8-3.8,3.9c-5.4,0.2-10.9,0-16.3,0.1c-19.7,0-39.5,0-59.2,0c-10.1,0-18,6-20.8,15.5c-0.5,1.6-0.7,3.2-0.7,4.8c0,10.2,0,20.3,0,30.5c0.1,10.6,7.9,19.3,18.5,20.6c2.9,0.4,5.8,0.5,8.8,0.5c22.4,0,44.8,0,67.2,0c6.2,0,6.3,0.1,6.4,6.4c0,10.3,0,20.5,0,30.8c0,4.4-1.4,8.2-4.6,11.4c-2.1,2.1-4.9,2.1-7.5,2.9c-0.7,0-1.4,0-2.1,0c-0.9-0.5-1.9-0.2-2.8-0.2c-63.8,0-127.7,0-191.5,0c-0.9,0-1.9-0.2-2.8,0.2c-0.5,0-1,0-1.5,0c-1.3-0.4-2.6-0.5-3.9-0.9c-3.3-1.1-5.4-3.3-6.2-6.7c-0.2-1.1-0.2-2.2-0.7-3.2c0-0.5,0-1,0-1.5c0.5-0.9,0.2-1.9,0.2-2.8c0-48,0-95.9,0-143.9C10.2,81.2,10.5,80.3,10,79.4z"/><path fill="#000000" d="M145.1,15.2c3.5,0.5,6.4,2.4,8.2,5.3c2,3.3,3.6,6.9,5.4,10.3c1,1.9-0.8,1.7-1.6,2c-9.9,2.7-19.7,5.4-29.6,8.1c-19.7,5.4-39.5,10.8-59.3,16.2c-4.7,1.3-9.4,0.4-14.2,0.7c0.3-1.3,1.3-1.3,2-1.7c26.4-13.1,52.9-26.2,79.3-39.4c1.4-0.7,3-0.9,4.1-2c0.3,0,0.7,0,1,0C141.9,15.4,143.6,14.6,145.1,15.2z"/><path fill="#000000" d="M10,79.4c0.7,0.9,0.5,2,0.5,3c0,47.8,0,95.7,0,143.5c0,1,0.2,2.1-0.5,3C10,179,10,129.2,10,79.4z"/><path fill="#000000" d="M97.8,57.2c12-3.3,24-6.6,36-9.9c16.3-4.5,32.5-8.9,48.8-13.3c3.3-0.9,6.5-1.6,9.9-0.5c4,1.4,7,4,8.3,8.2c1.5,4.7,2.7,9.4,4,14.2c0.4,1.3,0,2-1.4,1.9c-0.5,0-1,0-1.5,0c-33.9,0-67.7,0-101.6,0c-0.8,0-1.7,0-2.6,0C97.8,57.6,97.8,57.4,97.8,57.2z"/><path fill="#000000" d="M246,138.3c-0.8-8-6.1-12.6-14.5-12.6c-22.5,0-45,0-67.5,0c-3.6,0-7.2-0.1-10.9,0.1c-6.7,0.4-11.8,5.1-12.2,11.8c-0.6,10.4-0.5,20.9-0.1,31.3c0.3,7.8,5.8,12.8,13.8,12.8c26,0.1,51.9,0.1,77.8,0c7.7,0,12.9-5.1,13.6-12.8C246,158.7,246,148.5,246,138.3z M172.6,163c-6.5,0-8.9-2.4-8.9-8.8c0-6.5,2.3-8.8,8.9-8.9c6.5,0,8.8,2.3,8.8,8.8C181.4,160.6,179.1,163,172.6,163z"/></g></g>
</svg>